<?xml version="1.0"?>
<svg xmlns="http://www.w3.org/2000/svg" id="Layer_1" data-name="Layer 1" viewBox="0 0 512 512" width="512" height="512"><title>Report</title><g id="_Group_" data-name=" Group "><path d="M432.34,117.4V469.75a21.388,21.388,0,0,1-21.39,21.39H101.05a21.388,21.388,0,0,1-21.39-21.39V117.4a21.386,21.386,0,0,1,21.39-21.38h62.58v28.87H118.47V452.27H393.53V124.89H348.89V96.02h62.06A21.386,21.386,0,0,1,432.34,117.4Z" style="fill:#00efd1"/><path d="M393.53,124.89V452.27H118.47V124.89h45.16v18.14H348.89V124.89ZM292.22,371.33l77.63-53.3a17.984,17.984,0,0,0-23.96-6.55L309,331.38l-.59,2.7a23.839,23.839,0,0,0-23.34-18.95H253a38.017,38.017,0,0,1-16.6-3.81l-3.31-1.6a53.349,53.349,0,0,0-55.32,5.41l-35.62,31.71,29.96,46.14,13.05-22.74a16.564,16.564,0,0,1,18.16-7.98,1.244,1.244,0,0,0,.16.04l54.93,13.8A54.383,54.383,0,0,0,292.22,371.33Zm-19-83.89c42.05-17.04,56.25-47.73,51.79-70.72-3.11-15.42-14.06-25.43-28.26-25.43-7.85,0-16.5,3.25-24.89,9.33-8.52-6.35-17.04-9.6-25.01-9.6-14.2,0-25.16,10.01-28.13,25.7-4.47,23.26,9.87,54.09,51.79,70.72a3.535,3.535,0,0,0,2.71,0Z" style="fill:#00acea"/><path d="M308.41,334.08l.59-2.7,36.89-19.9a17.984,17.984,0,0,1,23.96,6.55l-77.63,53.3a54.383,54.383,0,0,1-33.81,4.77l-54.93-13.8a1.244,1.244,0,0,1-.16-.04,16.564,16.564,0,0,0-18.16,7.98l-13.05,22.74-29.96-46.14,35.62-31.71a53.349,53.349,0,0,1,55.32-5.41l3.31,1.6a38.017,38.017,0,0,0,16.6,3.81h32.07A23.839,23.839,0,0,1,308.41,334.08Z" style="fill:#edb288"/><path d="M295.03,61.25h20.2a33.66,33.66,0,0,1,33.66,33.66v48.12H163.63V94.91a33.66,33.66,0,0,1,33.66-33.66h97.74Z" style="fill:#f4b844"/><path d="M325.01,216.72c4.46,22.99-9.74,53.68-51.79,70.72a3.535,3.535,0,0,1-2.71,0c-41.92-16.63-56.26-47.46-51.79-70.72,2.97-15.69,13.93-25.7,28.13-25.7,7.97,0,16.49,3.25,25.01,9.6,8.39-6.08,17.04-9.33,24.89-9.33C310.95,191.29,321.9,201.3,325.01,216.72Z" style="fill:#00efd1"/><path d="M295.03,54.52v6.73H217.48V54.52a33.66,33.66,0,0,1,33.66-33.66h10.24A33.651,33.651,0,0,1,295.03,54.52Z" style="fill:#00efd1"/><path d="M135.44,351.2l29.96,46.14a8,8,0,0,0,6.709,3.643c.074,0,.148,0,.221,0a8,8,0,0,0,6.719-4.015L192.1,374.227a8.578,8.578,0,0,1,9.214-4.222c.117.032.235.06.356.088l54.794,13.766q.261.065.524.113a62.809,62.809,0,0,0,38.783-5.472,7.9,7.9,0,0,0,.98-.575l77.63-53.3a8,8,0,0,0,2.327-10.718,25.944,25.944,0,0,0-34.613-9.468l-30.736,16.515A32.039,32.039,0,0,0,285.07,307H253a30.135,30.135,0,0,1-13.119-2.948l-3.31-1.567a61.117,61.117,0,0,0-63.615,6.239c-.174.131-.343.278-.506.423l-35.619,31.714A8.006,8.006,0,0,0,135.44,351.2Zm47.4-29.865a45.177,45.177,0,0,1,46.774-4.409l3.3,1.528A46.191,46.191,0,0,0,253,323h32.07a15.974,15.974,0,0,1,13.373,7.422l-16.524-.717a144.082,144.082,0,0,0-26.11,1.225l-.72.108a8,8,0,0,0,2.2,15.855l.714-.1a128.067,128.067,0,0,1,23.191-1.073l27.351,1.241a8,8,0,0,0,8.362-7.992c0-.9-.048-1.805-.123-2.7l32.9-17.75a9.96,9.96,0,0,1,6.77-1L288.18,364.4a46.042,46.042,0,0,1-28.091,3.873L205.43,354.541l-.089-.022-.132-.033a24.655,24.655,0,0,0-26.987,11.772l-6.533,11.383-19.086-29.4Z" style="fill:#083863"/><path d="M267.56,294.876c.12.048.241.092.363.134a11.45,11.45,0,0,0,7.884,0c.14-.048.279-.1.418-.156,46.171-18.71,61.714-53.489,56.638-79.657l-.011-.058c-3.9-19.347-18.072-31.849-36.1-31.849-8.017,0-16.507,2.641-24.817,7.682-8.4-5.281-16.819-7.952-25.083-7.952-18.159,0-32.286,12.644-35.987,32.19C205.782,241.653,221.343,276.542,267.56,294.876Zm-40.98-76.668c2.241-11.835,10.008-19.188,20.27-19.188,6.2,0,13.2,2.772,20.23,8.015a8,8,0,0,0,9.475.063c6.947-5.035,14.12-7.808,20.195-7.808,10.221,0,18.039,7.272,20.411,18.981,3.757,19.443-8.845,45.691-45.313,61.08C235.378,264.272,222.794,237.91,226.58,218.208Z" style="fill:#083863"/><path d="M410.95,88H356.31a41.65,41.65,0,0,0-41.08-35H303c-.675-22-19.078-40-41.618-40H251.14c-22.545,0-40.952,18-41.627,40H197.29a41.65,41.65,0,0,0-41.08,35H101.05A29.147,29.147,0,0,0,72,117.4V469.75A29.015,29.015,0,0,0,101.05,499h309.9A29.015,29.015,0,0,0,440,469.75V117.4A29.147,29.147,0,0,0,410.95,88ZM251.14,29h10.24C275.1,29,286.334,40,287,53H225.513C226.177,40,237.417,29,251.14,29ZM172,94.91C172,80.761,183.141,69,197.29,69H315.23A26,26,0,0,1,341,94.91V135H172ZM348.89,151a8.069,8.069,0,0,0,8.11-7.97V133h29V444H126V133h30v10.03a7.667,7.667,0,0,0,7.63,7.97ZM424,469.75A13,13,0,0,1,410.95,483H101.05A13,13,0,0,1,88,469.75V117.4A13.131,13.131,0,0,1,101.05,104H156v13H118.47c-4.418,0-8.47,3.472-8.47,7.89V452.27c0,4.418,4.052,7.73,8.47,7.73H393.53c4.418,0,8.47-3.312,8.47-7.73V124.89c0-4.418-4.052-7.89-8.47-7.89H357V104h53.95A13.131,13.131,0,0,1,424,117.4Z" style="fill:#083863"/></g></svg>
